<svg xmlns="http://www.w3.org/2000/svg" viewBox="0 0 600 500"><rect width="600" height="500" fill="#eee7ff"/><path d="M0 342h600v158H0z" fill="#f2cf8d"/><path d="M80 164h440v218H80z" fill="#fffdf8"/><path d="M63 164h474l-38-74H101z" fill="#ff8b57"/><path d="M101 90h398" stroke="#17352e" stroke-width="8"/><path d="M113 164v-70m76 70v-70m76 70v-70m76 70v-70m76 70v-70" stroke="#fffdf8" stroke-width="38"/><path d="M125 222h120v160H125zm229 0h120v160H354z" fill="#dff4e8"/><g transform="translate(256 260)"><circle cx="0" cy="0" r="26" fill="#ffb07c"/><path d="M-33 32h67l18 126h-100z" fill="#1c6b52"/><path d="M-19 48l-59 53m94-52 68 45" stroke="#17352e" stroke-width="12" stroke-linecap="round"/></g><circle cx="176" cy="320" r="25" fill="#ffb07c"/><path d="M143 354h66l15 70h-96z" fill="#7765b5"/><circle cx="427" cy="321" r="25" fill="#a96a47"/><path d="M394 355h66l15 69h-96z" fill="#d36b4c"/></svg>
